<?xml version="1.0" encoding="utf-8"?>
<!-- Generator: Adobe Illustrator 28.3.0, SVG Export Plug-In . SVG Version: 6.00 Build 0)  -->
<svg version="1.1" id="Capa_1" xmlns="http://www.w3.org/2000/svg" xmlns:xlink="http://www.w3.org/1999/xlink" x="0px" y="0px"
	 viewBox="0 0 69.7 39.3" style="enable-background:new 0 0 69.7 39.3;" xml:space="preserve">
<style type="text/css">
	.st0{fill:#00303F;}
	.st1{fill:#353338;stroke:#353338;stroke-width:1.5;stroke-miterlimit:10;}
</style>
<circle class="st0" cx="65.4" cy="35" r="4.3"/>
<path class="st1" d="M0.9,24.4h4.3c0,5.4,4.3,10.3,9.7,10.3s9.7-4.9,9.7-10.3v-19h4.3v18.9c0,7.6-6.5,14-14,14S0.9,31.9,0.9,24.4z"
	/>
<path class="st1" d="M31,21.5c0-9.2,7.6-16.8,16.8-16.8c4.9,0,8.6,1.6,11.9,4.9L57,12.3c-2.7-2.2-5.9-3.8-9.2-3.8
	c-7,0-12.4,5.9-12.4,13c0,7,5.4,13,12.4,13c3.2,0,6.5-1.6,9.2-3.8l2.7,2.7c-3.2,2.7-7,4.9-11.9,4.9C38.6,38.3,31,30.7,31,21.5z"/>
</svg>
