<svg width="118" height="32" viewBox="0 0 118 32" fill="none" xmlns="http://www.w3.org/2000/svg">
<g clip-path="url(#clip0_1014_344)">
<path d="M113.881 25.1328C111.973 25.1328 110.431 26.6686 110.431 28.5674C110.431 30.4661 111.975 32.0019 113.881 32.0019C115.788 32.0019 117.333 30.4661 117.333 28.5674C117.333 26.6686 115.79 25.1328 113.881 25.1328Z" fill="#FF4D00"/>
<path fill-rule="evenodd" clip-rule="evenodd" d="M4.55303 10.063V10.9053H0V16.5446H4.55303V31.4534H10.9265V16.5446H15.4795V10.9053H10.9265V10.0671C10.9408 7.65433 13.1404 5.36396 15.9346 5.39863C16.2441 5.40271 16.5496 5.43126 16.8448 5.48837V0.126481C9.52836 -0.883079 4.64733 4.334 4.55303 10.063ZM47.3639 7.12029C49.2687 7.03821 50.746 5.43542 50.6635 3.54035C50.581 1.64528 48.97 0.175557 47.0652 0.257635C45.1604 0.339713 43.6831 1.94251 43.7656 3.83758C43.8481 5.73265 45.4591 7.20237 47.3639 7.12029ZM50.3806 10.9033H44.0522V31.4514H50.3806V10.9033ZM71.2577 10.9053V16.2406H71.2557L61.6002 26.1343H71.4607V31.4697H53.5479V26.1343L63.2361 16.414C63.3017 16.3508 63.2546 16.2406 63.1644 16.2406H53.8574C53.8 16.2406 53.7549 16.1958 53.7549 16.1387V10.9053H71.2577ZM112.86 16.2629C112.713 16.2486 112.563 16.2466 112.409 16.2445H112.411C108.68 16.1752 106.19 18.1066 106.114 21.1169V31.4512H99.7896V10.8928H106.112L106.3 12.812C106.311 12.8997 106.423 12.9385 106.479 12.8691C108.135 10.852 110.939 10.1994 112.86 10.748V16.2629ZM89.2115 14.644V14.646V22.1759C89.2115 24.5377 87.2906 26.4487 84.9168 26.4487C82.5429 26.4487 80.622 24.5377 80.622 22.1759V10.8994H74.2937V22.388C74.2937 27.6051 78.5433 31.833 83.7872 31.833C85.8085 31.833 87.879 31.2028 89.4165 30.132L89.6215 31.4435H95.5398V10.9015H89.2115V14.644ZM33.7265 13.0384L33.9315 10.9092H39.6448V31.4491H33.7265L33.5379 29.8542C31.8036 31.1065 29.6716 31.8468 27.3654 31.8468C21.5537 31.8468 16.8428 27.16 16.8428 21.378C16.8428 15.596 21.5537 10.9092 27.3654 10.9092C29.7557 10.9092 31.9594 11.7046 33.7265 13.0384ZM22.9374 21.2577C22.9374 24.1314 25.2785 26.4625 28.169 26.4625C31.0574 26.4625 33.4006 24.1314 33.4006 21.2577C33.4006 18.384 31.0574 16.0528 28.169 16.0528C25.2805 16.0528 22.9374 18.384 22.9374 21.2577Z" fill="#0D0D0D"/>
</g>
<defs>
<clipPath id="clip0_1014_344">
<rect width="117.333" height="32" fill="white"/>
</clipPath>
</defs>
</svg>
