<svg xmlns="http://www.w3.org/2000/svg" fill="currentColor" viewBox="0 0 24 24"><g class="default"><path d="M11.5 19.5a7 7 0 1 1 0-14 7 7 0 0 1 0 14Zm0-12.25a5.25 5.25 0 1 0 0 10.5 5.25 5.25 0 0 0 0-10.5Zm.875-4.375a.875.875 0 0 0-1.75 0v.875a.875.875 0 0 0 1.75 0v-.875Zm0 18.375a.875.875 0 0 0-1.75 0v.875a.875.875 0 0 0 1.75 0v-.875ZM22 12.5a.875.875 0 0 0-.875-.875h-.875a.875.875 0 0 0 0 1.75h.875A.875.875 0 0 0 22 12.5Zm-18.375 0a.875.875 0 0 0-.875-.875h-.875a.875.875 0 0 0 0 1.75h.875a.875.875 0 0 0 .875-.875Zm15.3 7.424a.872.872 0 0 0 0-1.233l-.622-.622a.873.873 0 0 0-1.234 1.234l.622.621a.87.87 0 0 0 1.233 0ZM5.93 6.931a.872.872 0 0 0 0-1.234l-.622-.621A.872.872 0 0 0 4.075 6.31l.622.62a.872.872 0 0 0 1.234 0Zm0 12.372a.872.872 0 0 0-1.234-1.234l-.621.622a.872.872 0 1 0 1.234 1.234l.62-.622ZM18.924 6.31a.872.872 0 0 0-1.234-1.234l-.62.622a.872.872 0 0 0 1.234 1.234l.62-.622Z" class="Vector"/></g></svg>