<svg width="141" height="127" viewBox="0 0 141 127" fill="none" xmlns="http://www.w3.org/2000/svg">
<path fill-rule="evenodd" clip-rule="evenodd" d="M93.8359 71.0987H93.3456C92.6378 71.0987 92.0542 71.6506 92.0137 72.3569C91.3595 83.759 81.8769 92.8342 70.314 92.8342C58.7515 92.8342 49.2685 83.759 48.6147 72.3569C48.5742 71.6506 47.9901 71.0987 47.2827 71.0987H46.7924C46.0263 71.0987 45.4092 71.7413 45.452 72.5062C46.1841 85.5847 57.0562 96 70.314 96C83.5722 96 94.4438 85.5847 95.176 72.5062C95.2188 71.7413 94.602 71.0987 93.8359 71.0987ZM99.1873 52.3892C99.1873 51.5263 99.6625 51.0515 100.526 51.0515H101.242C101.971 51.0515 102.443 51.3122 102.854 51.9479L108.547 60.6147V52.3892C108.547 51.5263 109.022 51.0515 109.885 51.0515H110.38C111.243 51.0515 111.718 51.5263 111.718 52.3892V64.2611C111.718 65.1243 111.243 65.5992 110.38 65.5992H109.691C108.961 65.5992 108.471 65.2983 108.078 64.7031L102.365 56.002V64.2614C102.365 65.1243 101.891 65.5992 101.027 65.5992H100.526C99.6625 65.5992 99.1873 65.1243 99.1873 64.2611V52.3892ZM89.619 53.7208C87.3131 53.7208 85.838 55.4033 85.838 58.3392C85.838 61.3545 87.2726 62.9901 89.592 62.9901C91.8783 62.9901 93.353 61.3545 93.353 58.3392C93.353 55.4165 91.8648 53.7208 89.619 53.7208ZM89.6321 50.9141C93.2288 50.9141 96.5245 53.1611 96.5245 58.3454C96.5245 63.6304 93.2488 65.7867 89.592 65.7867C85.9352 65.7867 82.7135 63.6304 82.7135 58.3454C82.7135 53.1611 85.9753 50.9141 89.6321 50.9141ZM76.8515 52.39C76.8515 51.5267 77.3263 51.0515 78.19 51.0515H78.6914C79.5547 51.0515 80.0296 51.5267 80.0296 52.39V64.2614C80.0296 65.1243 79.5547 65.5992 78.6914 65.5992H78.19C77.3263 65.5992 76.8515 65.1243 76.8515 64.2614V52.39ZM68.1511 53.882H65.9382C65.0753 53.882 64.5997 53.4064 64.5997 52.5435V52.39C64.5997 51.5267 65.0753 51.0515 65.9382 51.0515H73.5156C74.3789 51.0515 74.8545 51.5267 74.8545 52.39V52.5435C74.8545 53.4064 74.3789 53.882 73.5156 53.882H71.3227V64.2614C71.3227 65.1243 70.8475 65.5992 69.9846 65.5992H69.4893C68.6264 65.5992 68.1511 65.1243 68.1511 64.2614V53.882ZM58.3449 54.5108L56.0679 60.7304H60.6343L58.3449 54.5108ZM63.5447 65.5992C62.7751 65.5992 62.2856 65.2428 62.0194 64.511L61.4972 63.073H55.2108L54.695 64.5126C54.4339 65.2412 53.9355 65.5992 53.1664 65.5992H52.6306C51.6469 65.5992 51.2118 64.9677 51.574 64.0566L56.324 52.1126C56.6122 51.3886 57.1075 51.0515 57.8701 51.0515H58.8201C59.5831 51.0515 60.0776 51.389 60.3666 52.1126L65.1366 64.0539C65.5015 64.9666 65.0699 65.5992 64.1001 65.5992H63.5447ZM45.4099 53.882H43.197C42.3341 53.882 41.8584 53.4064 41.8584 52.5435V52.39C41.8584 51.5267 42.3341 51.0515 43.197 51.0515H50.7748C51.6377 51.0515 52.1133 51.5267 52.1133 52.39V52.5435C52.1133 53.4064 51.6377 53.882 50.7748 53.882H48.5815V64.2614C48.5815 65.1243 48.1062 65.5992 47.2434 65.5992H46.7485C45.8852 65.5992 45.4099 65.1243 45.4099 64.2614V53.882ZM29.911 61.4309L30.1814 61.3429C30.8911 61.1119 31.2846 61.3372 31.8609 61.9455C32.659 62.7868 33.6812 63.2639 34.8978 63.2639C36.4334 63.2639 37.3492 62.6174 37.3492 61.5343C37.3492 58.7049 29.3682 60.556 29.3682 55.0963C29.3682 52.5767 31.5099 50.8736 34.588 50.8736C36.8789 50.8736 38.9596 51.7874 39.8615 53.2475C40.3899 54.1038 40.1531 54.7121 39.2258 54.9331L38.8917 55.013C38.0192 55.2209 37.694 54.8587 37.0903 54.3283C36.3979 53.7204 35.6967 53.4052 34.7242 53.4052C33.3344 53.4052 32.4734 54.024 32.4734 55.0207C32.4734 58.1039 40.5269 55.9573 40.5269 61.4405C40.5269 64.0562 38.2298 65.7732 34.9233 65.7732C32.4472 65.7732 30.2223 64.6854 29.234 63.0745C28.7565 62.2957 29.0234 61.7198 29.911 61.4309ZM85.3431 33.8305H83.1305C82.2672 33.8305 81.792 33.3553 81.792 32.492V32.3381C81.792 31.4752 82.2672 31 83.1305 31H90.708C91.5713 31 92.0465 31.4752 92.0465 32.3381V32.492C92.0465 33.3553 91.5713 33.8305 90.708 33.8305H88.515V44.21C88.515 45.0729 88.0398 45.5481 87.1769 45.5481H86.6816C85.8187 45.5481 85.3431 45.0729 85.3431 44.21V33.8305ZM70.1705 32.3381C70.1705 31.4752 70.6453 31 71.5082 31H78.4569C79.319 31 79.7947 31.4752 79.7947 32.3381V32.492C79.7947 33.3553 79.319 33.8305 78.4569 33.8305H73.3416V36.9689H78.0947C78.9576 36.9689 79.4332 37.4106 79.4332 38.2006V38.2206C79.4332 39.0168 78.9576 39.4454 78.0947 39.4454H73.3416V42.7249H78.4569C79.319 42.7249 79.7947 43.1997 79.7947 44.0626V44.21C79.7947 45.0729 79.319 45.5481 78.4569 45.5481H71.5082C70.6453 45.5481 70.1705 45.0729 70.1705 44.21V32.3381ZM63.6639 32.3381C63.6639 31.4752 64.1387 31 65.002 31H65.5034C66.3671 31 66.8419 31.4752 66.8419 32.3381V44.21C66.8419 45.0729 66.3671 45.5481 65.5034 45.5481H65.002C64.1387 45.5481 63.6639 45.0729 63.6639 44.21V32.3381ZM52.923 33.7966H51.8425V42.7249H52.9496C56.6156 42.7249 57.796 41.2838 57.796 38.2538C57.796 35.2443 56.6156 33.7966 52.923 33.7966ZM48.6714 32.3381C48.6714 31.4752 49.1462 31 50.0091 31H52.8227C58.7102 31 61.0011 33.498 61.0011 38.2808C61.0011 42.9965 58.7102 45.5481 52.8227 45.5481H50.0091C49.1462 45.5481 48.6714 45.0729 48.6714 44.21V32.3381Z" fill="black"/>
</svg>
