<svg width="583" height="127" viewBox="0 0 583 127" fill="none" xmlns="http://www.w3.org/2000/svg">
<path fill-rule="evenodd" clip-rule="evenodd" d="M29 89.5506L37.841 37.452H51.2442L61.6734 65.229L72.0369 37.4494H85.4375L94.2785 89.5506H80.8096L76.3209 59.5628L64.0228 89.548H58.6362L46.9629 59.5628L42.4741 89.548H29V89.5506ZM114.659 63.5013C114.659 65.5756 115.05 67.4845 115.832 69.2358C117.351 72.6906 120.167 75.4089 123.673 76.803C125.445 77.5145 127.322 77.8716 129.304 77.8716C133.142 77.8908 136.84 76.4316 139.631 73.7966C140.991 72.5031 142.082 70.9531 142.841 69.2358C143.636 67.4297 144.037 65.4747 144.017 63.5013C144.017 61.427 143.623 59.5155 142.841 57.7668C142.082 56.0496 140.991 54.4996 139.631 53.206C136.839 50.5695 133.14 49.1092 129.301 49.1284C127.319 49.1284 125.442 49.4855 123.671 50.1997C120.165 51.5931 117.349 54.3104 115.83 57.7642C115.035 59.5714 114.635 61.5273 114.656 63.5013H114.659ZM100.497 63.5013C100.497 59.6311 101.211 56.026 102.639 52.6862C104.024 49.4094 106.043 46.4388 108.579 43.9453C111.113 41.4588 114.139 39.5132 117.662 38.1084C121.185 36.7011 125.064 36 129.301 36C133.493 36 137.36 36.7011 140.909 38.1084C144.453 39.5132 147.506 41.4588 150.06 43.9453C152.615 46.4316 154.648 49.4045 156.037 52.6888C157.465 56.026 158.179 59.6311 158.179 63.5013C158.179 67.3689 157.465 70.974 156.037 74.3138C154.648 77.5981 152.615 80.571 150.06 83.0573C147.506 85.5412 144.453 87.4895 140.909 88.8942C137.363 90.2989 133.493 91 129.304 91C125.067 91 121.185 90.2989 117.662 88.8942C114.139 87.4895 111.113 85.5412 108.579 83.0547C106.043 80.5612 104.024 77.5906 102.639 74.3138C101.211 70.974 100.497 67.3689 100.497 63.5013V63.5013ZM166.744 89.548V37.4546H180.284L205.29 69.3067V37.452H218.761V89.5506H205.29L180.284 57.6959V89.5506H166.744V89.548ZM259.31 48.9209H243.213V57.6277H258.412V69.0966H243.213V78.0791H259.31V89.5506H229.673V37.452H259.31V48.9209V48.9209ZM281.622 64.5358L262.625 37.452H278.79L288.46 51.6832L298.062 37.452H314.227L295.162 64.5358V89.5506H281.622V64.5358V64.5358ZM316.645 89.5506L325.486 37.452H338.889L349.318 65.229L359.682 37.4494H373.082L381.923 89.5506H368.454L363.963 59.5628L351.668 89.548H346.278L334.605 59.5628L330.116 89.548H316.645V89.5506ZM402.304 63.5013C402.304 65.5756 402.695 67.4845 403.477 69.2358C404.232 70.9465 405.311 72.4951 406.653 73.7966C407.998 75.0916 409.583 76.1119 411.318 76.8004C413.09 77.5145 414.967 77.8716 416.946 77.8716C420.785 77.8926 424.484 76.4331 427.275 73.7966C428.636 72.5029 429.727 70.9529 430.486 69.2358C431.282 67.4299 431.683 65.4748 431.662 63.5013C431.662 61.427 431.271 59.5155 430.486 57.7668C429.727 56.0498 428.636 54.4998 427.275 53.206C424.485 50.5686 420.785 49.1082 416.946 49.1284C414.967 49.1284 413.09 49.4855 411.318 50.1997C409.583 50.8889 407.998 51.9101 406.653 53.206C405.311 54.5068 404.233 56.0545 403.477 57.7642C402.683 59.5714 402.283 61.5273 402.304 63.5013V63.5013ZM388.142 63.5013C388.142 59.6311 388.856 56.026 390.284 52.6862C391.668 49.4088 393.687 46.4381 396.224 43.9453C398.758 41.4588 401.784 39.5132 405.307 38.1084C408.83 36.7011 412.709 36 416.946 36C421.138 36 425.007 36.7011 428.554 38.1084C432.098 39.5132 435.151 41.4588 437.705 43.9453C440.26 46.4316 442.293 49.4045 443.682 52.6888C445.11 56.026 445.821 59.6311 445.821 63.5013C445.821 67.3689 445.11 70.974 443.682 74.3138C442.293 77.5981 440.26 80.571 437.705 83.0573C435.151 85.5412 432.098 87.4895 428.554 88.8942C425.007 90.2989 421.138 91 416.946 91C412.709 91 408.83 90.2989 405.307 88.8942C401.784 87.4895 398.758 85.5412 396.224 83.0547C393.687 80.5619 391.668 77.5911 390.284 74.3138C388.856 70.974 388.142 67.3689 388.142 63.5013ZM467.929 37.452V65.783C467.929 67.3007 467.984 68.8551 468.1 70.4436C468.191 71.9327 468.542 73.3945 469.136 74.7628C469.711 76.052 470.622 77.0997 471.866 77.9084C473.108 78.7118 474.859 79.1162 477.116 79.1162C479.371 79.1162 481.109 78.7118 482.33 77.9084C483.519 77.1391 484.465 76.0484 485.06 74.7628C485.676 73.4003 486.039 71.9365 486.131 70.4436C486.245 68.8918 486.303 67.3364 486.304 65.7804V37.4494H499.773V67.6446C499.773 75.7527 497.919 81.6736 494.213 85.4047C490.504 89.1332 484.805 91 477.116 91C469.425 91 463.713 89.1358 459.983 85.4047C456.253 81.6736 454.389 75.7527 454.389 67.6473V37.452H467.929V37.452ZM524.227 60.7365H526.784C529.454 60.7365 531.504 60.1851 532.932 59.0797C534.36 57.9716 535.071 56.3831 535.071 54.3115C535.071 52.2372 534.36 50.6486 532.932 49.5432C531.504 48.4378 529.454 47.8838 526.784 47.8838H524.227V60.7365ZM554 89.5506H537.145L524.227 69.5115V89.5506H510.688V37.452H531.756C534.659 37.452 537.19 37.8774 539.355 38.7281C541.521 39.5814 543.303 40.7446 544.71 42.2202C546.114 43.6906 547.172 45.3973 547.886 47.3324C548.6 49.2675 548.957 51.3392 548.957 53.55C548.957 57.5122 548.002 60.726 546.091 63.1889C544.18 65.6544 541.358 67.3243 537.628 68.1986L554 89.5506Z" fill="black"/>
</svg>
