<svg width="685" height="127" viewBox="0 0 685 127" fill="none" xmlns="http://www.w3.org/2000/svg">
<path fill-rule="evenodd" clip-rule="evenodd" d="M535.688 83.9936C540.002 79.2994 542.125 72.4331 542.125 63.465C542.125 54.4968 540.002 47.7006 535.688 43.0064C531.375 38.3121 525.075 36 516.79 36C508.505 36 502.137 38.3121 497.823 43.0064C493.51 47.7006 491.319 54.4968 491.319 63.3949C491.319 72.3631 493.51 79.2293 497.892 83.9236C502.274 88.6178 508.505 91 516.722 91C525.075 91 531.375 88.6879 535.688 83.9936ZM516.79 78.949C509.738 78.949 506.245 73.7643 506.245 63.465C506.245 53.0255 509.738 47.8408 516.859 47.7707C520.351 47.7707 522.953 49.1019 524.733 51.6242C526.445 54.2166 527.335 58.1401 527.335 63.465C527.335 68.7197 526.445 72.6433 524.733 75.1656C523.021 77.6879 520.351 78.949 516.79 78.949ZM42.8997 90.2299H29V36.7713H59.8807V48.3318H42.8997V58.5611H58.5797V70.1216H42.8997V90.2299ZM120.067 36.7713V68.9305C120.067 75.9369 118.15 81.3318 114.247 85.1853C110.344 89.0388 104.798 90.9305 97.5399 90.9305C90.4189 90.9305 84.9412 89.0388 81.1068 85.3254C77.2724 81.612 75.3552 76.2171 75.3552 69.2107V36.7713H89.5288V68.1598C89.5288 71.9432 90.2135 74.6757 91.5829 76.3573C92.9523 78.0388 95.0065 78.9496 97.6769 78.9496C100.553 78.9496 102.675 78.1088 103.976 76.4273C105.277 74.7458 105.893 71.9432 105.893 68.0897V36.7713H120.067ZM147.25 90.2299H161.287V48.612H174.022V36.7713H134.446V48.612H147.25V90.2299ZM233.182 36.7713V68.9305C233.182 75.9369 231.264 81.3318 227.362 85.1853C223.459 89.0388 217.912 90.9305 210.654 90.9305C203.533 90.9305 198.056 89.0388 194.221 85.3254C190.387 81.612 188.47 76.2171 188.47 69.2107V36.7713H202.643V68.1598C202.643 71.9432 203.328 74.6757 204.697 76.3573C206.067 78.0388 208.121 78.9496 210.791 78.9496C213.667 78.9496 215.79 78.1088 217.091 76.4273C218.392 74.7458 219.008 71.9432 219.008 68.0897V36.7713H233.182ZM265.5 90.2299V70.7522V70.6821H269.06L280.153 90.1598H296.175L280.974 66.8987C286.863 63.5356 289.807 58.7012 289.807 52.5356C289.807 42.026 282.686 36.7713 268.512 36.7713H251.395V90.2299H265.5ZM268.17 59.8923H265.5V47.7012H268.307C273.168 47.7012 275.565 49.5229 275.565 53.2362C275.565 57.6503 273.1 59.8923 268.17 59.8923ZM339.175 90.2299H308.158V36.7713H339.175V48.3318H322.263V56.7394H337.943V68.2999H322.263V78.3891H339.175V90.2299ZM415.795 67.6696C419.218 64.4466 420.93 59.8224 420.93 53.867C420.93 48.402 419.287 44.1982 416 41.2555C412.713 38.3129 407.715 36.8415 401.142 36.8415H383.065V90.3001H397.17V72.574H401.142C407.441 72.574 412.371 70.8925 415.795 67.6696ZM399.772 60.8033H397.17V48.5422H400.799C404.702 48.5422 406.688 50.3638 406.688 53.9371C406.688 56.109 406.072 57.7906 404.839 58.9817C403.607 60.1727 401.895 60.8033 399.772 60.8033ZM450.647 70.8224V90.3001H436.542V36.8415H453.66C467.833 36.8415 474.954 42.0963 474.954 52.6059C474.954 58.7715 472.01 63.6059 466.121 66.9689L481.322 90.2301H465.3L454.207 70.8224H450.647ZM450.647 59.9626H453.317C458.247 59.9626 460.712 57.7205 460.712 53.3065C460.712 49.5931 458.316 47.7715 453.454 47.7715H450.647V59.9626ZM607.72 63.465C607.72 72.4331 605.597 79.2994 601.284 83.9936C596.97 88.6879 590.671 91 582.317 91C574.101 91 567.87 88.6178 563.488 83.9236C559.105 79.2293 556.914 72.4331 556.914 63.3949C556.914 54.4968 559.105 47.7006 563.419 43.0064C567.733 38.3121 574.101 36 582.386 36C590.671 36 596.97 38.3121 601.284 43.0064C605.529 47.6306 607.72 54.4968 607.72 63.465ZM571.773 63.465C571.773 73.7643 575.265 78.949 582.317 78.949C585.878 78.949 588.548 77.6879 590.26 75.1656C591.972 72.6433 592.862 68.7197 592.862 63.465C592.862 58.1401 591.972 54.2166 590.26 51.6242C588.48 49.1019 585.878 47.7707 582.386 47.7707C575.333 47.8408 571.773 53.0255 571.773 63.465ZM624.358 90.3001H638.258V70.1919H653.938V58.6313H638.258V48.402H655.239V36.8415H624.358V90.3001Z" fill="black"/>
</svg>
