<svg width="501" height="127" viewBox="0 0 501 127" fill="none" xmlns="http://www.w3.org/2000/svg">
<path fill-rule="evenodd" clip-rule="evenodd" d="M203.061 36.4714H243.324V46.2644H213.722V58.2514H240.379V68.0434H213.722V80.7366H243.324V90.5315H203.061V36.4714ZM432.366 36.4714V90.5315H471.032V85.5658H438.202V65.5929H467.768V60.6263H438.202V41.4362H471.032V36.4714H432.366ZM378.459 41.4352H400.427C402.623 41.4352 404.988 41.8359 406.604 43.427C408.22 45.02 408.63 47.3467 408.63 49.5094V56.5494C408.63 57.7771 408.529 59.1462 408.011 60.2776C407.423 61.5632 406.355 62.5915 405.223 63.4254L405.122 63.499L405.015 63.5678C404.673 63.777 404.33 63.9921 404 64.2199C403.647 64.4635 403.28 64.6913 402.895 64.8848C402.053 65.3435 401.127 65.5792 400.161 65.5792H378.459V41.4352ZM372.623 36.4714V90.5315H378.462V70.5449H396.365L411.632 90.5315H418.738L403.517 70.3937L411.413 64.9143C412.293 64.3034 413.562 63.279 413.889 62.2154C414.319 60.8119 414.467 59.3131 414.467 57.8517V48.2945C414.467 45.0151 413.743 41.7239 411.251 39.4758C408.591 37.1786 405.121 36.4714 401.664 36.4714H372.623ZM325.398 36.4714L305.983 90.5315H311.974L316.211 78.5396H350.46L354.784 90.5315H360.707L341.371 36.4714H325.398ZM329.279 41.4352H337.414L348.87 73.5738H317.93L329.279 41.4352ZM264.878 37.3563C263.219 37.9191 261.594 38.7412 260.381 39.9335C259.136 41.2044 258.348 42.7139 257.912 44.4238L257.887 44.5181C257.178 46.9637 256.961 49.6282 256.961 52.1631V74.8388C256.961 77.306 257.153 79.9882 257.877 82.3621L257.897 82.4338L257.916 82.5074C258.335 84.1937 259.092 85.7112 260.345 86.9447L260.383 86.985L260.422 87.0243C261.608 88.2863 263.148 89.0603 264.807 89.5396L264.857 89.5533L264.91 89.572C267.238 90.3341 269.942 90.5315 272.379 90.5315H283.547C284.097 90.5315 284.643 90.506 285.187 90.4579C285.85 90.3979 286.511 90.3518 287.174 90.3204C287.754 90.2938 288.333 90.2526 288.911 90.2025C289.621 90.1387 290.332 90.0925 291.045 90.065C291.66 90.0385 292.276 89.9746 292.885 89.8833L292.994 89.8666L293.108 89.8568L295.761 89.625V85.1464C294.45 85.2083 293.136 85.2957 291.826 85.3959L291.765 85.3998C288.056 85.6051 284.321 85.6591 280.605 85.6591H273.678C272.158 85.6591 270.483 85.5913 269.003 85.2378C267.558 84.893 266.248 84.2321 265.194 83.192C264.138 82.1538 263.466 80.8643 263.116 79.4412C262.751 77.9621 262.688 76.2718 262.688 74.7544V52.1631C262.688 50.6398 262.757 48.981 263.112 47.494C263.454 46.0611 264.133 44.7676 265.194 43.7236C266.218 42.7159 267.578 42.1246 268.962 41.773C270.442 41.3998 272.154 41.3419 273.678 41.3419H280.605C284.321 41.3419 288.054 41.3959 291.765 41.6021L291.824 41.6061C293.136 41.7053 294.45 41.7937 295.761 41.8575V37.376L295.515 37.3524C294.675 37.2719 293.833 37.1747 292.998 37.0509L290.922 36.8869L288.911 36.715C288.38 36.6679 287.847 36.6413 287.314 36.6413C286.604 36.6413 285.894 36.6079 285.187 36.5441C284.643 36.496 284.097 36.4714 283.547 36.4714H272.379C269.911 36.4714 267.256 36.6639 264.878 37.3563ZM176.154 50.8854C176.154 49.1617 175.809 47.9595 175.119 47.2809C174.429 46.6022 173.209 46.2624 171.459 46.2624H154.35V62.7162H171.219C171.645 62.7162 172.043 62.6112 172.414 62.4029C172.625 62.2979 172.864 62.1535 173.129 61.9718C173.395 61.7881 173.74 61.5671 174.166 61.3049C175.013 60.6783 175.57 60.0782 175.835 59.5027C176.048 59.0342 176.154 58.277 176.154 57.231V50.8854ZM143.689 36.4714H172.574C176.924 36.4714 180.399 37.594 182.998 39.8412C185.544 42.1384 186.817 45.4541 186.817 49.7893V58.4086C186.817 60.1312 186.604 61.6988 186.18 63.1091C185.757 64.4664 184.668 65.7462 182.919 66.9483L178.066 70.317L193.343 90.5315H180.212L166.447 72.5112H154.352V90.5315H143.689V36.4714ZM118.93 53.0795C118.93 51.5129 118.825 50.2853 118.612 49.3974C118.346 48.4055 117.975 47.6728 117.499 47.2033C117.02 46.7319 116.278 46.3675 115.271 46.1053C114.422 45.898 113.201 45.792 111.61 45.792H99.6751C98.0837 45.792 96.8632 45.898 96.0139 46.1053C95.0063 46.3675 94.2643 46.7319 93.7859 47.2033C93.2547 47.7268 92.9101 48.4565 92.752 49.3974C92.5391 50.2853 92.4337 51.5129 92.4337 53.0795V73.841C92.4337 75.4596 92.5391 76.6872 92.752 77.524C92.9101 78.4639 93.2547 79.1946 93.7859 79.7171C94.3697 80.2927 95.1117 80.6836 96.0139 80.8928C96.8632 81.101 98.0837 81.2071 99.6751 81.2071H111.61C113.201 81.2071 114.422 81.101 115.271 80.8928C116.173 80.6836 116.915 80.2927 117.499 79.7171C117.975 79.2467 118.346 78.516 118.612 77.524C118.825 76.6872 118.93 75.4596 118.93 73.841V53.0795ZM129.591 73.842C129.591 76.8719 129.272 79.4304 128.637 81.5204C128 83.7665 127.019 85.5688 125.691 86.9261C124.312 88.3374 122.563 89.3549 120.44 89.9815C118.372 90.6602 115.745 91 112.563 91H98.7178C95.5856 91 92.9867 90.6602 90.9189 89.9815C88.7436 89.3549 86.9941 88.3374 85.6682 86.9261C84.2349 85.4627 83.2537 83.6624 82.7226 81.5204C82.086 79.4304 81.7677 76.8719 81.7677 73.842V53.0805C81.7677 50.1026 82.086 47.5176 82.7226 45.3235C83.2537 43.2335 84.2349 41.4597 85.6682 39.9963C86.9941 38.6911 88.7436 37.6706 90.9189 36.9399C93.0414 36.3133 95.6404 36 98.7178 36H112.563C115.639 36 118.264 36.3133 120.44 36.9399C122.563 37.6706 124.312 38.6911 125.691 39.9963C127.019 41.3537 128 43.1304 128.637 45.3235C129.272 47.5176 129.591 50.1026 129.591 53.0805V73.842ZM39.6615 73.842C39.6615 75.4605 39.7689 76.6882 39.9797 77.524C40.1926 78.4129 40.59 79.1436 41.1738 79.7181C41.7577 80.2927 42.4996 80.6846 43.4018 80.8938C44.2512 81.101 45.4716 81.2071 47.063 81.2071H53.4286C57.3535 81.2071 60.7228 81.1295 63.5326 80.9713C64.9131 80.8682 66.1457 80.7877 67.2344 80.7366C68.321 80.6846 69.2637 80.6325 70.0584 80.5805V89.902C68.1487 90.1121 66.5045 90.2693 65.124 90.3734C64.4347 90.4795 63.7718 90.5433 63.1353 90.5688C62.4987 90.5944 61.8885 90.6346 61.3067 90.6867C60.7228 90.7388 60.1511 90.778 59.5956 90.8045C59.0381 90.8301 58.4664 90.8704 57.8846 90.9224C57.3007 90.9745 56.7169 91 56.133 91C55.5512 91 54.9127 91 54.2234 91H45.8689C42.7916 91 40.2189 90.6602 38.1491 89.9815C35.9758 89.3549 34.2242 88.3374 32.8985 86.9261C31.4671 85.5167 30.4839 83.74 29.9548 81.5989C29.3182 79.5089 29 76.9495 29 73.9195V53.0805C29 50.1026 29.3182 47.5176 29.9548 45.3235C30.4839 43.2335 31.4671 41.4597 32.8985 39.9963C34.2242 38.6911 35.9758 37.6706 38.1491 36.9399C40.2716 36.3133 42.8443 36 45.8689 36H54.2234C54.9127 36 55.5512 36 56.133 36C56.7169 36 57.3007 36.0255 57.8846 36.0776C58.4664 36.1296 59.0381 36.1562 59.5956 36.1562C60.1511 36.1562 60.7228 36.1837 61.3067 36.2357C61.8885 36.2878 62.4987 36.3398 63.1353 36.3909C63.7718 36.4429 64.4347 36.497 65.124 36.549C65.8133 36.6531 66.5715 36.7445 67.3926 36.8221C68.2156 36.9006 69.1036 36.992 70.0584 37.098V46.4215C69.2637 46.3675 68.321 46.3154 67.2344 46.2634C66.1457 46.2123 64.9131 46.1337 63.5326 46.0287C60.7228 45.8725 57.3535 45.7929 53.4286 45.7929H47.063C45.4716 45.7929 44.2512 45.899 43.4018 46.1062C42.3943 46.3675 41.6522 46.7329 41.1738 47.2043C40.59 47.7788 40.1926 48.5096 39.9797 49.3974C39.7689 50.2863 39.6615 51.5139 39.6615 53.0805V73.842Z" fill="black"/>
</svg>
