<?xml version="1.0" encoding="utf-8"?>
<!-- Generator: Adobe Illustrator 28.3.0, SVG Export Plug-In . SVG Version: 6.00 Build 0)  -->
<svg version="1.1" id="Capa_1" xmlns="http://www.w3.org/2000/svg" xmlns:xlink="http://www.w3.org/1999/xlink" x="0px" y="0px"
	 viewBox="0 0 118 32" style="enable-background:new 0 0 118 32;" xml:space="preserve">
<style type="text/css">
	.st0{fill:#FF4D00;}
</style>
<circle class="st0" cx="32.4" cy="18.6" r="4.5"/>
<g>
	<path d="M4.8,28.3c-1.4-0.8-2.5-2-3.4-3.4c-0.8-1.4-1.2-2.9-1.2-4.5H3c0,1.2,0.3,2.2,0.8,3.3c0.6,1,1.3,1.9,2.3,2.5s2,0.9,3.2,0.9
		s2.2-0.3,3.2-0.9s1.7-1.4,2.3-2.5c0.6-1,0.8-2.1,0.8-3.3v-9.9H9.4V8.1h9.2v12.3c0,1.6-0.4,3.1-1.2,4.5c-0.8,1.4-2,2.5-3.4,3.4
		c-1.4,0.8-2.9,1.3-4.5,1.3C7.7,29.6,6.2,29.1,4.8,28.3z"/>
	<path d="M26.8,28.1c-1.7-1-3-2.3-4-4s-1.5-3.5-1.5-5.5s0.5-3.8,1.5-5.5s2.3-3,4-4s3.5-1.5,5.5-1.5c1.6,0,3,0.3,4.3,0.8
		s2.4,1.3,3.5,2.4l-1.8,1.8c-2-1.6-4-2.5-6-2.5c-1.5,0-2.9,0.4-4.1,1.1C27,12,26,13,25.3,14.3c-0.7,1.3-1.1,2.7-1.1,4.2
		c0,1.5,0.4,2.9,1.1,4.2C26,24,27,25,28.2,25.8c1.2,0.8,2.6,1.1,4.1,1.1c1.9,0,3.9-0.8,6-2.5l1.8,1.8c-1.2,1-2.4,1.8-3.7,2.3
		c-1.2,0.6-2.6,0.8-4.1,0.8C30.3,29.6,28.5,29.1,26.8,28.1z"/>
	<path d="M43.9,8.1H59v2.5H46.7v6.3h12v2.5h-12v7.4h12.7v2.5H43.9V8.1z M52.3,2.4h2.1l-2.1,4.2h-2.1L52.3,2.4z"/>
	<path d="M66.5,28.5c-1.6-0.7-3-1.8-4-3.1l2.1-1.8c0.1,0.1,0.4,0.4,1.1,1.1s1.5,1.2,2.6,1.7s2.2,0.7,3.4,0.7c0.8,0,1.6-0.1,2.4-0.4
		c0.9-0.2,1.6-0.6,2.3-1.2c0.6-0.6,1-1.3,1-2.3c0-0.7-0.3-1.3-0.8-1.7c-0.5-0.5-1.2-0.8-2-1.1c-0.8-0.3-1.9-0.6-3.3-0.9
		c-1.7-0.4-3.1-0.8-4.2-1.2c-1.1-0.4-2-0.9-2.7-1.7c-0.8-0.7-1.1-1.7-1.1-2.9c0-1.1,0.3-2.1,1-3C65,9.8,66,9.1,67.2,8.5
		C68.5,8,70,7.7,71.7,7.7c2.9,0,5.4,0.8,7.4,2.5l-1.4,2.1c-0.9-0.7-1.8-1.2-2.7-1.5c-0.9-0.4-2-0.6-3.3-0.6c-0.8,0-1.6,0.1-2.5,0.4
		c-0.9,0.3-1.6,0.7-2.2,1.2s-0.9,1.2-0.9,2c0,0.6,0.2,1.1,0.7,1.5s1.1,0.7,1.8,1c0.7,0.2,1.8,0.5,3.1,0.8c1.8,0.4,3.2,0.8,4.3,1.2
		c1.1,0.4,2.1,1,2.9,1.8s1.2,1.9,1.2,3.3c0,1.9-0.8,3.5-2.3,4.6s-3.6,1.7-6.2,1.7C69.9,29.6,68.1,29.2,66.5,28.5z"/>
	<path d="M102.3,29.2h-3.2l-7.4-15.8l-7.4,15.8h-3.2L91.7,7.4L102.3,29.2z"/>
	<path d="M104.8,8.1h13v2.5h-10.2v18.7h-2.8V8.1z"/>
</g>
</svg>
